<?xml version="1.0" encoding="UTF-8"?>
<svg id="Layer_1" xmlns="http://www.w3.org/2000/svg" version="1.1" viewBox="0 0 48 48">
  <!-- Generator: Adobe Illustrator 30.5.1, SVG Export Plug-In . SVG Version: 2.1.4 Build 3)  -->
  <defs>
    <style>
      .st0 {
        fill: #fcbc03;
      }

      .st1 {
        fill: #020303;
      }
    </style>
  </defs>
  <g>
    <path class="st1" d="M31.63,45.29h-8c-.57,0-1.08-.44-1.1-.96l-.05-1.36c0-.18-.11-.33-.32-.33h-12.3c-.25,0-.42.08-.46.32l-.27,1.37c-.1.5-.5.94-1.07.94l-6.61.02c-.49,0-.9-.19-1.16-.52-.31-.39-.32-.81-.22-1.31l4.74-22.1,3.67-16.92c.22-1.02,1.16-1.74,2.2-1.74h27.28c1.25,0,1.99.93,2.21,2.06l2.05,10.39,5.77,28.64c.16.8-.53,1.5-1.3,1.5h-5.87c-.67,0-1.1-.49-1.23-1.1l-.29-1.41c-.02-.07-.11-.14-.2-.14h-5.93s-.25,1.41-.25,1.41c-.12.66-.56,1.24-1.28,1.24Z"/>
    <path class="st0" d="M29.66,7.13h-12.62c-.24-.03-.38-.22-.34-.45l.35-1.88c.05-.26.28-.43.56-.43h12.54c.21,0,.32.17.29.36l-.36,2.1c-.08.19-.19.3-.42.3Z"/>
    <g>
      <path class="st0" d="M31.83,40.91l-.46,2.61c-.02.13-.1.24-.25.24h-7.06s-.06-1.54-.06-1.54c-.03-.69-.53-1.12-1.22-1.12h-13.63c-.53,0-.91.33-1.09.8l-.46,1.87H1.58s2.02-9.38,2.02-9.38l3.82-17.66,2.51-11.51c.09-.42.37-.83.79-.83l4.54-.02c.15,0,.23.16.2.31l-.93,4.77c-.06.29-.03.54.15.76.15.18.4.29.71.29l14.76-.02c.47,0,.95-.31,1.02-.76l.84-5.03c.03-.2.17-.32.37-.32h4.86c.48-.01.78.3.87.79l-2.52,14.42-2.79,15.65-.99,5.68Z"/>
      <path class="st1" d="M34.75,9.47c-.08.45-.34.68-.74.72-.3.03-.84-.2-.77-.61l.63-3.61c.08-.45.51-.67.92-.59s.63.4.55.81l-.6,3.29Z"/>
      <path class="st1" d="M11.67,10.14c-.44-.01-.68-.37-.59-.76l.73-3.43c.1-.47.51-.7.96-.54.3.1.5.35.42.69l-.72,3.43c-.08.37-.37.63-.8.62Z"/>
    </g>
  </g>
  <path d="M28.5,38.6c-.47-.41-.97-.85-1.49-1.31-.52-.47-.98-.91-1.39-1.32-.2-.19-.34-.4-.44-.62-.1-.22-.14-.44-.14-.66,0-.44.16-.86.48-1.26.29-.35.61-.74.96-1.14.35-.41.71-.82,1.08-1.23.37-.41.72-.8,1.05-1.16.37-.41.75-.61,1.13-.61.24,0,.45.09.64.26.19.17.29.37.29.6,0,.18-.05.36-.16.55-.11.19-.27.38-.48.56-.51.44-.99.89-1.43,1.35-.44.46-.84.86-1.19,1.19-.26.26-.39.49-.39.7,0,.21.12.4.37.58.37.26.81.55,1.31.88.51.33.96.65,1.36.97.24.18.42.38.56.59.13.21.2.42.2.64,0,.26-.1.51-.31.74-.21.23-.45.34-.72.34-.39,0-.82-.21-1.3-.63Z"/>
  <path class="st0" d="M38.14,38.75c-.2.25-.41.44-.62.58s-.41.21-.62.21c-.26,0-.49-.1-.71-.3-.22-.2-.33-.43-.33-.69,0-.17.05-.35.14-.54.09-.19.24-.39.43-.59.53-.57,1.07-1.14,1.62-1.7.54-.56,1.08-1.14,1.6-1.73.16-.19.23-.35.21-.49-.02-.14-.11-.28-.29-.41-.49-.37-.98-.73-1.46-1.06s-.96-.68-1.43-1.04c-.36-.27-.54-.59-.54-.98,0-.27.1-.51.32-.71.21-.21.45-.31.72-.31.18,0,.37.04.55.13.18.09.36.2.53.35.31.27.65.57,1.02.91.37.34.75.69,1.12,1.04.38.36.73.7,1.07,1.02.24.24.36.53.36.87,0,.41-.16.84-.48,1.28-.49.68-1,1.36-1.53,2.05-.53.69-1.09,1.4-1.68,2.13Z"/>
</svg>